<?xml version="1.0" standalone="no"?>
<!DOCTYPE svg PUBLIC "-//W3C//DTD SVG 20010904//EN"
 "http://www.w3.org/TR/2001/REC-SVG-20010904/DTD/svg10.dtd">
<svg version="1.0" xmlns="http://www.w3.org/2000/svg"
 width="1116.000000pt" height="1116.000000pt" viewBox="0 0 1116.000000 1116.000000"
 preserveAspectRatio="xMidYMid meet">
<metadata>
Created by potrace 1.11, written by Peter Selinger 2001-2013
</metadata>
<g transform="translate(0.000000,1116.000000) scale(0.100000,-0.100000)"
fill="#000000" stroke="none">
<path d="M3058 11140 c-120 -25 -148 -34 -258 -81 -210 -90 -380 -241 -465
-414 -25 -49 -45 -98 -45 -107 0 -9 -4 -19 -9 -22 -9 -6 -14 111 -14 336 l0
148 -70 -38 c-75 -40 -174 -130 -225 -203 -58 -85 -127 -241 -149 -334 -29
-128 -46 -275 -47 -412 -1 -40 -4 -73 -7 -73 -3 0 -26 19 -50 42 -46 43 -345
328 -434 413 -29 28 -63 59 -75 70 l-22 20 20 -45 c86 -190 222 -508 222 -519
0 -6 5 -11 10 -11 6 0 10 -6 10 -14 0 -14 18 -58 71 -174 16 -35 29 -65 29
-67 0 -3 13 -33 28 -67 16 -35 66 -151 112 -258 46 -107 87 -199 91 -204 7 -7
-20 -93 -50 -161 -5 -11 -20 -45 -34 -75 -75 -169 -169 -392 -173 -416 -3 -14
-5 -29 -6 -33 -3 -15 17 -115 44 -211 16 -58 31 -112 32 -120 2 -8 11 -42 20
-75 27 -108 32 -159 22 -230 -13 -88 -15 -95 -20 -113 -3 -9 -7 -33 -10 -52
-3 -19 -21 -98 -41 -175 -20 -77 -41 -158 -46 -180 -14 -58 -96 -306 -132
-400 -22 -60 -44 -95 -83 -138 -103 -111 -148 -246 -158 -472 -4 -95 19 -162
90 -256 117 -154 354 -327 584 -429 82 -36 83 -37 61 -74 -22 -35 -191 -372
-191 -380 0 -3 -15 -38 -34 -78 -57 -122 -75 -165 -123 -286 -47 -121 -113
-300 -117 -317 -2 -5 -21 -68 -44 -140 -34 -108 -77 -261 -97 -343 -14 -56
-55 -242 -60 -272 -3 -19 -8 -42 -10 -50 -2 -8 -7 -35 -10 -60 -3 -25 -8 -56
-10 -70 -8 -46 -14 -84 -21 -145 -3 -33 -8 -67 -9 -75 -19 -101 -27 -586 -12
-725 4 -38 10 -90 12 -115 9 -87 14 -118 40 -250 3 -14 8 -38 10 -55 13 -77
81 -296 127 -408 22 -53 42 -113 44 -133 6 -52 58 -181 102 -252 20 -34 75
-110 122 -169 l85 -108 23 -105 c53 -242 157 -494 277 -674 97 -147 290 -296
382 -296 74 0 202 116 273 247 12 21 25 45 30 53 17 28 60 129 60 139 0 16 15
14 132 -13 56 -13 125 -27 151 -31 27 -3 59 -8 70 -11 99 -19 497 -26 672 -11
130 10 374 52 545 92 115 27 494 147 543 172 15 7 67 16 115 18 134 8 209 21
312 54 132 44 176 71 169 107 -1 5 -1 27 0 50 1 39 4 42 54 67 92 47 281 156
392 225 22 14 130 56 240 93 422 141 897 348 1209 528 49 28 90 51 92 51 5 0
386 231 398 241 6 5 56 39 111 76 84 56 250 175 305 220 111 89 158 129 230
192 85 75 315 303 400 397 69 75 309 360 375 444 33 41 64 80 70 86 5 6 21 26
35 44 14 18 48 63 77 99 29 36 50 67 48 69 -3 3 -500 -154 -555 -175 -8 -3
-19 -7 -25 -8 -5 -2 -81 -26 -168 -55 -87 -29 -160 -50 -162 -48 -3 2 15 25
38 50 81 88 103 114 207 238 58 69 107 127 110 130 3 3 21 25 40 50 19 25 37
47 40 50 3 3 30 39 61 80 422 565 649 1045 873 1845 64 230 98 367 91 373 -3
3 -20 -8 -38 -25 -17 -16 -77 -66 -132 -109 -55 -43 -105 -83 -111 -89 -33
-31 -239 -193 -241 -191 -2 2 50 144 78 211 24 60 106 345 125 435 3 13 12 56
20 95 8 38 17 86 20 105 3 19 9 58 14 85 9 53 16 106 26 195 3 30 7 71 10 90
22 193 22 740 0 901 -3 19 -8 66 -11 104 -3 39 -7 81 -9 92 -3 12 -7 46 -10
75 -4 29 -8 62 -10 73 -2 11 -9 54 -16 95 -7 41 -23 127 -37 190 -13 63 -26
124 -28 134 -13 61 -72 259 -90 305 l-22 54 -23 -69 c-52 -158 -144 -386 -213
-528 -37 -77 -51 -96 -60 -87 -7 7 -12 15 -12 19 -1 17 -121 198 -192 290
-280 360 -688 623 -1148 742 -114 29 -132 33 -209 45 -21 4 -46 8 -56 10 -9 2
-53 6 -96 10 -43 4 -82 9 -86 11 -3 2 -63 5 -133 5 -84 1 -128 5 -130 13 -36
130 -94 263 -139 319 l-22 27 -64 -63 c-89 -86 -206 -151 -311 -171 -19 -3
-45 -9 -59 -12 -98 -21 -424 -5 -450 23 -4 4 -10 53 -13 108 -7 115 -16 164
-52 270 -71 213 -194 375 -338 445 -57 27 -177 55 -177 41 -4 -144 -8 -169
-33 -219 -52 -103 -137 -143 -256 -120 -47 8 -144 52 -159 71 -5 7 -26 44 -47
82 -152 287 -332 445 -588 519 -46 14 -102 27 -124 31 -21 3 -49 7 -61 10
-105 20 -362 23 -492 5 -103 -13 -276 -53 -348 -80 -29 -11 -55 -20 -57 -20
-24 0 53 116 117 176 23 23 64 57 91 76 l47 36 -72 26 c-126 44 -149 48 -303
51 -115 2 -170 -1 -237 -15z"/>
</g>
</svg>
